@startuml
'https://plantuml.com/class-diagram

StudyBase <|-- StudySnapShotPowerFlow
StudyBase <|-- StudyTimeSeriesPowerFlow
'StudyBase <|-- StudyShortCircuit

StudyBase "1" *-- "1" ModelBase : contains
ElementDataDFs <|-- ModelBase
BusesDataDF <|-- ModelBase
SummaryModelData <|-- ModelBase
ElementData <|-- ModelBase
SegmentsDF <|-- ModelBase
ModelUtils <|-- ModelBase

VoltagesNodal <|-- SnapShotPowerFlowResults
VoltagesElement <|-- SnapShotPowerFlowResults
Currents <|-- SnapShotPowerFlowResults
Powers <|-- SnapShotPowerFlowResults
CircuitSnapShotPowerFlowResults <|-- SnapShotPowerFlowResults

EnergyMeters <|-- TimeSeriesPowerFlowResults
Monitor <|-- TimeSeriesPowerFlowResults

'SnapShotPowerFlowResults <|-- TimeSeriesPowerFlowResults

StudySnapShotPowerFlow "1" *-- "1" SnapShotPowerFlowResults : contains
StudySnapShotPowerFlow "1" *-- "1" StudySnapShotPowerFlowSettings : contains
StudySnapShotPowerFlow "1" *-- "1" DSSViewSnapShotPowerFlowResults : contains
StudySnapShotPowerFlow "1" *-- "1" StaticViewSnapShotPowerFlowResults : contains
StudySnapShotPowerFlow "1" *-- "1" InteractiveViewSnapShotPowerFlowResults : contains

StudyTimeSeriesPowerFlow "1" *-- "1" TimeSeriesPowerFlowResults : contains
StudyTimeSeriesPowerFlow "1" *-- "1" StudyTimeSeriesPowerFlowSettings : contains
StudyTimeSeriesPowerFlow "1" *-- "1" DSSViewTimeSeriesPowerFlowResults : contains
StudyTimeSeriesPowerFlow "1" *-- "1" StaticViewTimeSeriesPowerFlowResults : contains
StudyTimeSeriesPowerFlow "1" *-- "1" InteractiveViewTimeSeriesPowerFlowResults : contains


DSSViewSnapShotPowerFlowResults <|-- DSSVoltageProfile
StaticViewSnapShotPowerFlowResults <|-- StaticVoltageProfile
InteractiveViewSnapShotPowerFlowResults <|-- InteractiveVoltageProfile

DSSVoltageProfile <|-- VoltageProfileBase
InteractiveVoltageProfile <|-- VoltageProfileBase
StaticVoltageProfile <|-- VoltageProfileBase

DSSMonitor <|-- MonitorBase
InteractiveMonitor <|-- MonitorBase
StaticMonitor <|-- MonitorBase

DSSViewTimeSeriesPowerFlowResults <|-- DSSMonitor
StaticViewTimeSeriesPowerFlowResults <|-- StaticMonitor
InteractiveViewTimeSeriesPowerFlowResults <|-- InteractiveMonitor

InteractiveCustomPlotStyle "1" *-- "1" InteractiveVoltageProfile : contains
StaticCustomPlotStyle "1" *-- "1" StaticVoltageProfile : contains

InteractiveCustomPlotStyle "1" *-- "1" InteractiveMonitor : contains
StaticCustomPlotStyle "1" *-- "1" StaticMonitor : contains

'StudyShortCircuit "1" *-- "1" ShortCircuitResults : contains

SnapShotPowerFlowResults "1" o-- "1" VoltageProfileBase : contains
SnapShotPowerFlowResults "1" o-- "1" StaticVoltageProfile : contains
SnapShotPowerFlowResults "1" o-- "1" InteractiveVoltageProfile : contains

TimeSeriesPowerFlowResults "1" o-- "1" MonitorBase : contains
TimeSeriesPowerFlowResults "1" o-- "1" StaticMonitor : contains
TimeSeriesPowerFlowResults "1" o-- "1" InteractiveMonitor : contains

'VoltageProfile <|-- ViewSnapShotPowerFlowResults
'ViewSnapShotPowerFlowResults "1" o-- "1" SnapshotPowerFlowResults : contains
'ViewTemporalResults "1" o-- "1" TemporalResults : contains
'
'
'ViewSnapshotPowerFlowResults <|-- ViewResults
'ViewTemporalResults <|-- ViewResults
'ViewResults "1" o-- "1" Results : contains

StudySettings <|-- StudySnapShotPowerFlowSettings
StudySettings <|-- StudyTimeSeriesPowerFlowSettings


class DSSUtils {
    -dss: DSS

    +compile_dss(dss_file: string)
    +solve_snapshot(control_mode: string, max_control_iter: int)
    +dss_command(command: string)
}

class StudyBase {
    +name: string
    +dss: DSS
    +model: ModelBase
}


class StudySnapShotPowerFlow {
    +results: SnapShotPowerFlowResults
    +settings: StudySnapShotPowerFlowSettings
    +dss_view: DSSViewSnapshotPowerFlowResults
    +static_view: StaticViewSnapshotPowerFlowResults
    +interactive_view: InteractiveViewSnapshotPowerFlowResults
    +run()
    -validate_settings()
}

class StudyTimeSeriesPowerFlow {
    +results: TimeSeriesPowerFlowResults
    +settings: StudyTimeSeriesPowerFlowSettings
    +dss_view: DSSViewTimeSeriesPowerFlowResults
    +static_view: StaticViewTimeSeriesPowerFlowResults
    +interactive_view: InteractiveViewTimeSeriesPowerFlowResults
    +run()
    -validate_settings()
}

class StudySnapShotPowerFlowSettings {
    +mode: string
    +get_settings()
    +validate_settings()
}

class StudyTimeSeriesPowerFlowSettings {
    +mode: string
    +number: int
    +get_settings()
    +validate_settings()
}

class StudySettings {
    +algorithm: string
    +time: Union[List[float], Tuple[float]]
    +validate_settings()
}


class ModelBase {
    -dss: DSS
}

class ElementDataDFs {
    -dss: DSS
    +lines_df: pd.DataFrame
    +transformers_df: pd.DataFrame
    +meters_df: pd.DataFrame
    +generators_df: pd.DataFrame
    +vsources_df: pd.DataFrame
    +regcontrols_df: pd.DataFrame
    +loads_df: pd.DataFrame

    -create_dataframe(element: DSS.Element)
}

class BusesDataDF {
    -dss: DSS
    +buses_df: pd.DataFrame

    -create_dataframe()
}

class SummaryModelData {
    -dss: DSS
    +summary_df: pd.DataFrame

    -create_dataframe()
    -get_max_min_norm_amps()
}

class ElementData {
    -dss: DSS
    +element_data(element_class: string, element_name: string): pd.DataFrame
    +edit_element(element_class: string, element_name: string, properties: dict)
    +add_element(element_class: string, element_name: string, properties: dict)
    +add_line_in_vsource(add_meter: Bool)
    -add_meter(meter_name: str, element: str, terminal: int)
    -is_element_in_model(element_class: string, element_name: string)
}

class SegmentsDF {
    -dss: DSS
    +segments_df: pd.DataFrame

    -create_dataframe()
}

class ModelUtils {
    -dss: DSS
    +is_element_in_model(element_class: str, element_name: str): Bool
    +disable_elements_type(element_type: str)
}

class SnapShotPowerFlowResults {
    -dss: DSS
}

class TimeSeriesPowerFlowResults {
    -dss: DSS
}

class VoltagesNodal {
    -dss: DSS
    +voltage_ln_nodes: Tuple[pd.DataFrame, pd.DataFrame]

    -create_dataframe()
}

class VoltagesElement {
    -dss: DSS
    +voltage_elements: Tuple[pd.DataFrame, pd.DataFrame]

    -create_dataframe()
}

class Currents {
    -dss: DSS
    +currents_elements: Tuple[pd.DataFrame, pd.DataFrame]

    -create_dataframe()
}

class Powers {
    -dss: DSS
    +powers_elements: Tuple[pd.DataFrame, pd.DataFrame]

    -create_dataframe()
}

class CircuitSnapShotPowerFlowResults {
    -dss: DSS
    +summary_df: Tuple[pd.DataFrame, pd.DataFrame]

    -create_dataframe()
}


class DSSVoltageProfile {
    -dss: DSS
    +voltage_profile()

}

class StaticVoltageProfile {
    -dss: DSS
    -results: SnapShotPowerFlowResults
    +voltage_profile_plot_style()
    +voltage_profile_get_bus_marker(name, symbol, size, color, marker_name, show_legend)
    +voltage_profile(title, xlabel, ylabel, xlim, ylim, buses_marker, tight_layout, legend, dpi, save_file_path, show)
}


class InteractiveVoltageProfile {
    -dss: DSS
    -results: SnapShotPowerFlowResults
    +voltage_profile_plot_style()
    +voltage_profile_get_bus_marker(name, symbol, size, color, annotate, marker_name, show_legend)
    +voltage_profile(title, xlabel, ylabel, xlim, ylim, buses_marker, show, save_file_path)
}

class VoltageProfileBase {
    -dss: DSS
    -check_energymeter()
    -prepare_results()

}

class EnergyMeters {
    -dss: DSS
    +energymeters()
    -create_dataframe()
}

class Monitor {
    -dss: DSS
    +monitor(name)
    -create_dataframe(name)
}


class DSSMonitor {
    -dss: DSS
    +vmag_vs_time(name, unit)
    +p_vs_time(name)

}

class StaticMonitor {
    -dss: DSS
    -results: TimeSeriesPowerFlowResults
    +monitor_plot_style()
    +vmag_vs_time(name, unit, title, xlabel, ylabel, xlim, ylim, tight_layout, legend, dpi, save_file_path, show)
    +p_vs_time(name, title, xlabel, ylabel, xlim, ylim, tight_layout, legend, dpi, save_file_path, show)
}

class InteractiveMonitor {
    -dss: DSS
    -results: TimeSeriesPowerFlowResults
    +monitor_plot_style()
    +vmag_vs_time(name, unit, title, xlabel, ylabel, xlim, ylim, legend, save_file_path, show, get_fig_obj)
    +p_vs_time(name, title, xlabel, ylabel, xlim, ylim, legend, save_file_path, show, get_fig_obj)
}

class MonitorBase {
    -dss: DSS
    -results: TimeSeriesPowerFlowResults
    -check_v_monitor(name)
    -organize_v_results(name)
    -check_p_monitor(name)
    -organize_p_results(name)
}

@enduml
